<svg xmlns="http://www.w3.org/2000/svg" version="1.1" xmlns:xlink="http://www.w3.org/1999/xlink" xmlns:svgjs="http://svgjs.com/svgjs" width="512" height="512" x="0" y="0" viewBox="0 0 60 60" style="enable-background:new 0 0 512 512" xml:space="preserve" class=""><g><path d="M30 20.83c-5.06 0-9.17 4.11-9.17 9.17s4.11 9.18 9.17 9.18 9.18-4.12 9.18-9.18-4.12-9.17-9.18-9.17z" fill="#1a1a1a" data-original="#000000" opacity="1" class=""></path><path d="M43.84 5H16.16C10.01 5 5 10.01 5 16.16v27.68C5 50 10.01 55 16.16 55h27.68C50 55 55 50 55 43.84V16.16C55 10.01 50 5 43.84 5zM30 46.2c-8.93 0-16.2-7.27-16.2-16.2S21.07 13.81 30 13.81 46.2 21.07 46.2 30 38.93 46.2 30 46.2zm16.54-29.45c-1.89 0-3.43-1.53-3.43-3.42s1.54-3.43 3.43-3.43 3.43 1.54 3.43 3.43-1.54 3.42-3.43 3.42z" fill="#1a1a1a" data-original="#000000" opacity="1" class=""></path></g></svg>