<svg xmlns="http://www.w3.org/2000/svg" width="20" height="21" fill="none"><path fill="#EDB86F" d="M16.2 11.318c-.183 0-.375-.058-.558-.1a7.86 7.86 0 0 1-1.092-.325 1.667 1.667 0 0 0-2.067.833l-.183.375a10.15 10.15 0 0 1-2.217-1.666 10.151 10.151 0 0 1-1.666-2.217l.35-.233A1.667 1.667 0 0 0 9.6 5.918a8.61 8.61 0 0 1-.325-1.091 6.185 6.185 0 0 1-.1-.567 2.5 2.5 0 0 0-2.5-2.075h-2.5a2.5 2.5 0 0 0-2.5 2.842 15.833 15.833 0 0 0 13.767 13.716h.316a2.5 2.5 0 0 0 2.285-1.481c.143-.323.217-.673.215-1.027v-2.5a2.5 2.5 0 0 0-2.058-2.417Zm.417 5a.833.833 0 0 1-.603.802.875.875 0 0 1-.364.031A14.166 14.166 0 0 1 3.392 4.835a.908.908 0 0 1 .208-.683.833.833 0 0 1 .625-.284h2.5a.833.833 0 0 1 .833.659c.034.227.075.452.125.675.097.439.225.87.384 1.291L6.9 7.035a.833.833 0 0 0-.408 1.108 12.075 12.075 0 0 0 5.833 5.833c.203.084.43.084.633 0a.833.833 0 0 0 .475-.433l.517-1.166c.43.154.87.282 1.317.383.222.05.447.091.675.125a.833.833 0 0 1 .658.833l.017 2.6Z"/></svg>