<svg width="312" height="20" viewBox="0 0 312 20" fill="none" xmlns="http://www.w3.org/2000/svg">
<path fill-rule="evenodd" clip-rule="evenodd" d="M20.8469 12.444C21.8516 13.168 23.662 12.8387 23.7151 15.5893C23.7443 17.0893 21.7177 18.2974 21.0869 16.76C20.7645 15.9747 21.7427 15.3214 22.1188 15.88C22.176 15.9627 22.1948 16.1893 22.25 16.008C22.3937 15.544 22.0183 15.4614 22.0219 15.3627C22.0219 15.3507 22.0303 15.3387 22.0511 15.3214C22.4927 14.96 22.5896 15.7 22.6219 15.4893C22.7781 14.4053 20.9183 14.8733 20.4292 12.272C20.314 11.66 20.5839 12.256 20.8469 12.444ZM18.8697 9.97869C18.8203 8.32669 17.5568 6.93735 18.0579 5.56002C18.2817 4.94402 19.6651 4.40135 20.0511 5.63069C20.3803 6.68669 19.5213 6.87069 19.5271 9.97869H18.8697ZM18.8697 9.97869C18.8203 11.6307 17.5568 13.016 18.0579 14.3934C18.2817 15.0094 19.6651 15.556 20.0511 14.3227C20.3803 13.2707 19.5213 13.0814 19.5271 9.97869H18.8697ZM14.5645 8.73736C10.3989 8.73736 9.00573 4.74269 10.0719 2.99602C11.0995 1.31469 12.2541 1.76668 14.4265 1.66002C15.8448 1.58535 16.7511 0.653355 16.7303 0.932022C16.5864 2.97069 14.3464 3.23336 13.4281 4.50403C11.5271 7.13469 16.2041 7.98935 16.6193 7.15868C16.8927 6.61201 19.562 8.73736 14.5645 8.73736ZM14.5645 11.22C10.3989 11.22 9.00573 15.2147 10.0719 16.9614C11.0995 18.6427 12.2541 18.1907 14.4265 18.2934C15.8448 18.3667 16.7511 19.3 16.7303 19.02C16.5864 16.9814 14.3464 16.7187 13.4281 15.4494C11.5271 12.8187 16.2041 11.964 16.6193 12.7974C16.8927 13.344 19.562 11.22 14.5645 11.22ZM18.0459 8.83202C18.2099 9.02135 18.3131 9.48535 18.3292 9.97869H0.637466C0.641733 9.93735 0.672399 9.90002 0.737999 9.86802C1.8724 9.36669 2.75627 7.73468 5.12133 8.62668C5.69067 8.84002 5.71507 8.14535 4.80467 8.14535C3.67293 8.14535 6.05626 6.16401 8.15266 7.02401C9.71666 7.66401 10.5511 8.99203 12.3713 9.43603C15.7088 10.2414 17.8464 8.60935 18.0459 8.83202ZM18.0459 11.1253C18.2099 10.936 18.3131 10.468 18.3292 9.97869H0.637466C0.641733 10.02 0.672399 10.056 0.737999 10.0814C1.8724 10.5867 2.75627 12.2227 5.12133 11.3267C5.69067 11.1173 5.71507 11.812 4.80467 11.812C3.67293 11.812 6.05626 13.788 8.15266 12.9334C9.71666 12.292 10.5511 10.9614 12.3713 10.5214C15.7088 9.71203 17.8464 11.3467 18.0459 11.1253ZM23.9599 8.73736C32.176 8.73336 29.1344 3.37335 26.9333 4.69735C25.7765 5.39202 26.4136 6.63736 27.4229 6.22136C27.5745 6.16003 27.8131 5.92135 27.7125 6.14802C27.4579 6.74002 26.8927 6.63335 26.8084 6.74001C26.7937 6.75601 26.7937 6.77735 26.8041 6.80535C27.0323 7.43868 27.8584 6.67468 27.6959 6.92535C26.7672 8.36801 18.0661 8.73736 23.9599 8.73736ZM23.9599 11.22C32.176 11.224 29.1344 16.584 26.9333 15.26C25.7765 14.5614 26.4136 13.32 27.4229 13.7307C27.5745 13.792 27.8131 14.0307 27.7125 13.8014C27.4579 13.2174 26.8927 13.32 26.8084 13.2134C26.7959 13.196 26.7937 13.18 26.8041 13.152C27.0323 12.5187 27.8584 13.2827 27.6959 13.032C26.7672 11.5894 18.0661 11.22 23.9599 11.22ZM20.1891 9.28803H149.049C148.945 9.49336 148.885 9.72802 148.885 9.97869C148.885 10.2254 148.945 10.46 149.052 10.6694H20.1891C20.1312 10.2454 20.1396 9.57203 20.1891 9.28803ZM291.108 12.444C290.104 13.168 288.293 12.8387 288.237 15.5893C288.207 17.0893 290.237 18.2974 290.865 16.76C291.188 15.9747 290.211 15.3214 289.832 15.88C289.776 15.9627 289.759 16.1893 289.703 16.008C289.561 15.544 289.937 15.4614 289.931 15.3627C289.931 15.3507 289.92 15.3387 289.904 15.3214C289.463 14.96 289.365 15.7 289.333 15.4893C289.176 14.4053 291.032 14.8733 291.525 12.272C291.639 11.66 291.371 12.256 291.108 12.444ZM293.085 9.97869C293.132 8.32669 294.395 6.93735 293.895 5.56002C293.671 4.94402 292.288 4.40135 291.904 5.63069C291.572 6.68669 292.429 6.87069 292.425 9.97869H293.085ZM293.085 9.97869C293.132 11.6307 294.395 13.016 293.895 14.3934C293.671 15.0094 292.288 15.556 291.904 14.3227C291.572 13.2707 292.429 13.0814 292.425 9.97869H293.085ZM297.387 8.73736C301.556 8.73736 302.949 4.74269 301.881 2.99602C300.856 1.31469 299.699 1.76668 297.527 1.66002C296.108 1.58535 295.204 0.653355 295.223 0.932022C295.367 2.97069 297.607 3.23336 298.523 4.50403C300.425 7.13469 295.748 7.98935 295.336 7.15868C295.059 6.61201 292.388 8.73736 297.387 8.73736ZM297.387 11.22C301.556 11.22 302.949 15.2147 301.881 16.9614C300.856 18.6427 299.699 18.1907 297.527 18.2934C296.108 18.3667 295.204 19.3 295.223 19.02C295.367 16.9814 297.607 16.7187 298.523 15.4494C300.425 12.8187 295.748 11.964 295.336 12.7974C295.059 13.344 292.388 11.22 297.387 11.22ZM293.909 8.83202C293.745 9.02135 293.64 9.48535 293.625 9.97869H311.316C311.311 9.93735 311.28 9.90002 311.215 9.86802C310.08 9.36669 309.195 7.73468 306.831 8.62668C306.26 8.84002 306.237 8.14535 307.148 8.14535C308.283 8.14535 305.895 6.16401 303.803 7.02401C302.236 7.66401 301.401 8.99203 299.583 9.43603C296.244 10.2414 294.107 8.60935 293.909 8.83202ZM293.909 11.1253C293.745 10.936 293.64 10.468 293.625 9.97869H311.316C311.311 10.02 311.28 10.056 311.215 10.0814C310.08 10.5867 309.195 12.2227 306.831 11.3267C306.26 11.1173 306.237 11.812 307.148 11.812C308.283 11.812 305.895 13.788 303.803 12.9334C302.236 12.292 301.401 10.9614 299.583 10.5214C296.244 9.71203 294.107 11.3467 293.909 11.1253ZM287.993 8.73736C279.779 8.73336 282.819 3.37335 285.019 4.69735C286.176 5.39202 285.539 6.63736 284.531 6.22136C284.379 6.16003 284.141 5.92135 284.24 6.14802C284.495 6.74002 285.06 6.63335 285.147 6.74001C285.157 6.75601 285.159 6.77735 285.151 6.80535C284.923 7.43868 284.096 6.67468 284.259 6.92535C285.185 8.36801 293.884 8.73736 287.993 8.73736ZM287.993 11.22C279.779 11.224 282.819 16.584 285.019 15.26C286.176 14.5614 285.539 13.32 284.531 13.7307C284.379 13.792 284.141 14.0307 284.24 13.8014C284.495 13.2174 285.06 13.32 285.144 13.2134C285.157 13.196 285.159 13.18 285.151 13.152C284.923 12.5187 284.096 13.2827 284.259 13.032C285.185 11.5894 293.884 11.22 287.993 11.22ZM291.108 7.51202C290.104 6.78935 288.293 7.11735 288.237 4.36402C288.207 2.86802 290.237 1.65602 290.865 3.19335C291.188 3.97735 290.211 4.63202 289.832 4.07602C289.776 3.99068 289.759 3.76802 289.703 3.94535C289.561 4.40935 289.937 4.49601 289.931 4.59068C289.931 4.60668 289.92 4.61869 289.904 4.63202C289.463 4.99335 289.365 4.25336 289.333 4.46669C289.176 5.54802 291.032 5.07469 291.525 7.68135C291.639 8.29735 291.371 7.70135 291.108 7.51202ZM291.764 9.28803H166.38C166.485 9.49336 166.544 9.72802 166.544 9.97869C166.544 10.2254 166.485 10.46 166.38 10.6694H291.764C291.821 10.2454 291.815 9.57203 291.764 9.28803ZM157.716 12.9214C158.552 12.9214 159.235 13.604 159.235 14.4374C159.235 15.28 158.552 15.9587 157.716 15.9587C156.877 15.9587 156.195 15.28 156.195 14.4374C156.195 13.604 156.877 12.9214 157.716 12.9214ZM157.716 3.99468C158.552 3.99468 159.235 4.67602 159.235 5.51469C159.235 6.35335 158.552 7.03603 157.716 7.03603C156.877 7.03603 156.195 6.35335 156.195 5.51469C156.195 4.67602 156.877 3.99468 157.716 3.99468ZM162.18 8.45735C163.016 8.45735 163.699 9.13602 163.699 9.97869C163.699 10.8174 163.016 11.4987 162.18 11.4987C161.339 11.4987 160.661 10.8174 160.661 9.97869C160.661 9.13602 161.339 8.45735 162.18 8.45735ZM153.251 8.45735C154.091 8.45735 154.771 9.13602 154.771 9.97869C154.771 10.8174 154.091 11.4987 153.251 11.4987C152.413 11.4987 151.733 10.8174 151.733 9.97869C151.733 9.13602 152.413 8.45735 153.251 8.45735ZM157.716 8.45735C158.552 8.45735 159.235 9.13602 159.235 9.97869C159.235 10.8174 158.552 11.4987 157.716 11.4987C156.877 11.4987 156.195 10.8174 156.195 9.97869C156.195 9.13602 156.877 8.45735 157.716 8.45735ZM20.8469 7.51202C21.8516 6.78935 23.662 7.11735 23.7151 4.36402C23.7443 2.86802 21.7177 1.65602 21.0869 3.19335C20.7645 3.97735 21.7427 4.63202 22.1188 4.07602C22.176 3.99068 22.1948 3.76802 22.25 3.94535C22.3937 4.40935 22.0183 4.49601 22.0219 4.59068C22.0219 4.60668 22.0303 4.61869 22.0511 4.63202C22.4927 4.99335 22.5896 4.25336 22.6219 4.46669C22.7781 5.54802 20.9183 5.07469 20.4292 7.68135C20.314 8.29735 20.5839 7.70135 20.8469 7.51202Z" fill="#BA8464"/>
</svg>
