<svg width="146" height="20" viewBox="0 0 146 20" fill="none" xmlns="http://www.w3.org/2000/svg">
<path fill-rule="evenodd" clip-rule="evenodd" d="M125.108 12.444C124.104 13.168 122.293 12.8387 122.237 15.5893C122.207 17.0893 124.237 18.2974 124.865 16.76C125.188 15.9747 124.211 15.3214 123.832 15.88C123.776 15.9627 123.759 16.1893 123.703 16.008C123.561 15.544 123.937 15.4614 123.931 15.3627C123.931 15.3507 123.92 15.3387 123.904 15.3214C123.463 14.96 123.365 15.7 123.333 15.4893C123.176 14.4053 125.032 14.8733 125.525 12.272C125.639 11.66 125.371 12.256 125.108 12.444ZM127.085 9.97869C127.132 8.32669 128.395 6.93735 127.895 5.56002C127.671 4.94402 126.288 4.40135 125.904 5.63069C125.572 6.68669 126.429 6.87069 126.425 9.97869H127.085ZM127.085 9.97869C127.132 11.6307 128.395 13.016 127.895 14.3934C127.671 15.0094 126.288 15.556 125.904 14.3227C125.572 13.2707 126.429 13.0814 126.425 9.97869H127.085ZM131.387 8.73736C135.556 8.73736 136.949 4.74269 135.881 2.99602C134.856 1.31469 133.699 1.76668 131.527 1.66002C130.108 1.58535 129.204 0.653355 129.223 0.932022C129.367 2.97069 131.607 3.23336 132.523 4.50403C134.425 7.13469 129.748 7.98935 129.336 7.15868C129.059 6.61202 126.388 8.73736 131.387 8.73736ZM131.387 11.22C135.556 11.22 136.949 15.2147 135.881 16.9614C134.856 18.6427 133.699 18.1907 131.527 18.2934C130.108 18.3667 129.204 19.3 129.223 19.02C129.367 16.9814 131.607 16.7187 132.523 15.4494C134.425 12.8187 129.748 11.964 129.336 12.7974C129.059 13.344 126.388 11.22 131.387 11.22ZM127.909 8.83202C127.745 9.02136 127.64 9.48535 127.625 9.97869H145.316C145.311 9.93735 145.28 9.90002 145.215 9.86802C144.08 9.36669 143.195 7.73468 140.831 8.62668C140.26 8.84002 140.237 8.14535 141.148 8.14535C142.283 8.14535 139.895 6.16401 137.803 7.02401C136.236 7.66401 135.401 8.99203 133.583 9.43603C130.244 10.2414 128.107 8.60936 127.909 8.83202ZM127.909 11.1253C127.745 10.936 127.64 10.468 127.625 9.97869H145.316C145.311 10.02 145.28 10.056 145.215 10.0814C144.08 10.5867 143.195 12.2227 140.831 11.3267C140.26 11.1173 140.237 11.812 141.148 11.812C142.283 11.812 139.895 13.788 137.803 12.9334C136.236 12.292 135.401 10.9614 133.583 10.5214C130.244 9.71203 128.107 11.3467 127.909 11.1253ZM121.993 8.73736C113.779 8.73336 116.819 3.37335 119.019 4.69735C120.176 5.39202 119.539 6.63736 118.531 6.22136C118.379 6.16003 118.141 5.92135 118.24 6.14802C118.495 6.74002 119.06 6.63335 119.147 6.74001C119.157 6.75601 119.159 6.77734 119.151 6.80534C118.923 7.43868 118.096 6.67468 118.259 6.92535C119.185 8.36801 127.884 8.73736 121.993 8.73736ZM121.993 11.22C113.779 11.224 116.819 16.584 119.019 15.26C120.176 14.5614 119.539 13.32 118.531 13.7307C118.379 13.792 118.141 14.0307 118.24 13.8014C118.495 13.2174 119.06 13.32 119.144 13.2134C119.157 13.196 119.159 13.18 119.151 13.152C118.923 12.5187 118.096 13.2827 118.259 13.032C119.185 11.5894 127.884 11.22 121.993 11.22ZM125.108 7.51202C124.104 6.78935 122.293 7.11735 122.237 4.36402C122.207 2.86802 124.237 1.65602 124.865 3.19335C125.188 3.97735 124.211 4.63202 123.832 4.07602C123.776 3.99068 123.759 3.76802 123.703 3.94535C123.561 4.40935 123.937 4.49601 123.931 4.59068C123.931 4.60668 123.92 4.61869 123.904 4.63202C123.463 4.99335 123.365 4.25336 123.333 4.46669C123.176 5.54802 125.032 5.07469 125.525 7.68135C125.639 8.29735 125.371 7.70135 125.108 7.51202ZM125.764 9.28803H0.37999C0.485323 9.49336 0.543976 9.72802 0.543976 9.97869C0.543976 10.2254 0.485323 10.46 0.37999 10.6694H125.764C125.821 10.2454 125.815 9.57203 125.764 9.28803Z" fill="#BA8464"/>
</svg>
