<svg width="30" height="20" viewBox="0 0 30 20" fill="none" xmlns="http://www.w3.org/2000/svg">
<path fill-rule="evenodd" clip-rule="evenodd" d="M9.10799 12.444C8.10399 13.168 6.29333 12.8387 6.23733 15.5893C6.20666 17.0893 8.23732 18.2974 8.86532 16.76C9.18798 15.9747 8.21066 15.3214 7.83199 15.88C7.77599 15.9627 7.75866 16.1893 7.70266 16.008C7.56132 15.544 7.93732 15.4614 7.93065 15.3627C7.93065 15.3507 7.91998 15.3387 7.90398 15.3214C7.46265 14.96 7.36533 15.7 7.33333 15.4893C7.176 14.4053 9.03199 14.8733 9.52532 12.272C9.63865 11.66 9.37066 12.256 9.10799 12.444ZM11.0853 9.97869C11.132 8.32669 12.3946 6.93735 11.8946 5.56002C11.6706 4.94402 10.288 4.40135 9.90398 5.63069C9.57198 6.68669 10.4293 6.87069 10.4253 9.97869H11.0853ZM11.0853 9.97869C11.132 11.6307 12.3946 13.016 11.8946 14.3934C11.6706 15.0094 10.288 15.556 9.90398 14.3227C9.57198 13.2707 10.4293 13.0814 10.4253 9.97869H11.0853ZM15.3866 8.73736C19.556 8.73736 20.9493 4.74269 19.8813 2.99602C18.856 1.31469 17.6986 1.76668 15.5266 1.66002C14.108 1.58535 13.204 0.653355 13.2226 0.932022C13.3666 2.97069 15.6066 3.23336 16.5226 4.50403C18.4253 7.13469 13.748 7.98935 13.336 7.15868C13.0587 6.61202 10.388 8.73736 15.3866 8.73736ZM15.3866 11.22C19.556 11.22 20.9493 15.2147 19.8813 16.9614C18.856 18.6427 17.6986 18.1907 15.5266 18.2934C14.108 18.3667 13.204 19.3 13.2226 19.02C13.3666 16.9814 15.6066 16.7187 16.5226 15.4494C18.4253 12.8187 13.748 11.964 13.336 12.7974C13.0587 13.344 10.388 11.22 15.3866 11.22ZM11.9093 8.83202C11.7453 9.02136 11.64 9.48535 11.6253 9.97869H29.316C29.3107 9.93735 29.28 9.90002 29.2147 9.86802C28.08 9.36669 27.1946 7.73468 24.8306 8.62668C24.26 8.84002 24.2373 8.14535 25.148 8.14535C26.2827 8.14535 23.8947 6.16401 21.8027 7.02401C20.236 7.66401 19.4013 8.99203 17.5827 9.43603C14.244 10.2414 12.1067 8.60936 11.9093 8.83202ZM11.9093 11.1253C11.7453 10.936 11.64 10.468 11.6253 9.97869H29.316C29.3107 10.02 29.28 10.056 29.2147 10.0814C28.08 10.5867 27.1946 12.2227 24.8306 11.3267C24.26 11.1173 24.2373 11.812 25.148 11.812C26.2827 11.812 23.8947 13.788 21.8027 12.9334C20.236 12.292 19.4013 10.9614 17.5827 10.5214C14.244 9.71203 12.1067 11.3467 11.9093 11.1253ZM5.99331 8.73736C-2.22136 8.73336 0.818636 3.37335 3.01864 4.69735C4.17597 5.39202 3.53866 6.63736 2.53066 6.22136C2.37866 6.16003 2.14131 5.92135 2.23998 6.14802C2.49465 6.74002 3.05999 6.63335 3.14666 6.74001C3.15732 6.75601 3.15862 6.77734 3.15062 6.80534C2.92262 7.43868 2.09599 6.67468 2.25866 6.92535C3.18532 8.36801 11.884 8.73736 5.99331 8.73736ZM5.99331 11.22C-2.22136 11.224 0.818636 16.584 3.01864 15.26C4.17597 14.5614 3.53866 13.32 2.53066 13.7307C2.37866 13.792 2.14131 14.0307 2.23998 13.8014C2.49465 13.2174 3.06 13.32 3.144 13.2134C3.15734 13.196 3.15862 13.18 3.15062 13.152C2.92262 12.5187 2.09599 13.2827 2.25866 13.032C3.18532 11.5894 11.884 11.22 5.99331 11.22ZM9.10799 7.51202C8.10399 6.78935 6.29333 7.11735 6.23733 4.36402C6.20666 2.86802 8.23732 1.65602 8.86532 3.19335C9.18798 3.97735 8.21066 4.63202 7.83199 4.07602C7.77599 3.99068 7.75866 3.76802 7.70266 3.94535C7.56132 4.40935 7.93732 4.49601 7.93065 4.59068C7.93065 4.60668 7.91998 4.61869 7.90398 4.63202C7.46265 4.99335 7.36533 4.25336 7.33333 4.46669C7.176 5.54802 9.03199 5.07469 9.52532 7.68135C9.63865 8.29735 9.37066 7.70135 9.10799 7.51202Z" fill="white"/>
</svg>
