<svg width="50" height="51" viewBox="0 0 50 51" fill="none" xmlns="http://www.w3.org/2000/svg">
<path fill-rule="evenodd" clip-rule="evenodd" d="M14.5833 44.5498C12.3732 44.5498 10.2536 43.6718 8.69078 42.109C7.12797 40.5462 6.25 38.4266 6.25 36.2165C6.25 33.1477 9.02708 23.4248 14.5833 7.0498H18.75L14.5833 27.8831C16.7935 27.8831 18.9131 28.7611 20.4759 30.3239C22.0387 31.8867 22.9167 34.0063 22.9167 36.2165C22.9167 38.4266 22.0387 40.5462 20.4759 42.109C18.9131 43.6718 16.7935 44.5498 14.5833 44.5498ZM35.4167 44.5498C33.2065 44.5498 31.0869 43.6718 29.5241 42.109C27.9613 40.5462 27.0833 38.4266 27.0833 36.2165C27.0833 33.1477 29.8604 23.4248 35.4167 7.0498H39.5833L35.4167 27.8831C37.6268 27.8831 39.7464 28.7611 41.3092 30.3239C42.872 31.8867 43.75 34.0063 43.75 36.2165C43.75 38.4266 42.872 40.5462 41.3092 42.109C39.7464 43.6718 37.6268 44.5498 35.4167 44.5498Z" fill="#5E79B5"/>
</svg>
